<svg xmlns="http://www.w3.org/2000/svg" width="24" height="24" viewBox="0 0 24 24"><g transform="translate(375.113 -159.156) rotate(90)"><path d="M841.095,403.75a.75.75,0,1,1-.75-.75A.75.75,0,0,1,841.095,403.75Z" transform="translate(-674.438 -40.387)" fill="#2e2e2e" stroke="#2e2e2e" stroke-width="1"/><path d="M851.281,403.75a.75.75,0,1,1-.75-.75A.75.75,0,0,1,851.281,403.75Z" transform="translate(-679.624 -40.387)" fill="#2e2e2e" stroke="#2e2e2e" stroke-width="1"/><path d="M861.466,403.75a.75.75,0,1,1-.75-.75A.75.75,0,0,1,861.466,403.75Z" transform="translate(-684.809 -40.387)" fill="#2e2e2e" stroke="#2e2e2e" stroke-width="1"/></g><rect width="24" height="24" fill="none"/></svg>