<svg xmlns="http://www.w3.org/2000/svg" width="48" height="48" viewBox="0 0 48 48"><g transform="translate(10 10)"><g transform="translate(8638.5 17713)"><line x2="2.563" y2="2.728" transform="translate(-8620.343 -17706.998)" fill="none" stroke="#2e2e2e" stroke-linecap="round" stroke-linejoin="round" stroke-width="1.5"/><path d="M4.8,16.36,17.785,3.667a2.8,2.8,0,0,1,3.9,0,2.65,2.65,0,0,1,0,3.808L8.695,20.168,3.5,21.438Z" transform="translate(-8637 -17712.879)" fill="none" stroke="#2e2e2e" stroke-linecap="round" stroke-linejoin="round" stroke-width="1.5"/><line x2="3.456" y2="3.278" transform="translate(-8631.378 -17696.393)" fill="none" stroke="#2e2e2e" stroke-linecap="round" stroke-linejoin="round" stroke-width="1.5"/><line x2="18" transform="translate(-8633.5 -17688.879)" fill="none" stroke="#2e2e2e" stroke-linecap="round" stroke-linejoin="round" stroke-width="1.5"/></g><rect width="28" height="28" fill="none"/></g><circle cx="24" cy="24" r="24" fill="#1ec41e"/><g transform="translate(10 10)"><g transform="translate(8637.5 17713)"><line x2="2.563" y2="2.728" transform="translate(-8620.343 -17706.998)" fill="none" stroke="#fff" stroke-linecap="round" stroke-linejoin="round" stroke-width="1.5"/><path d="M4.8,16.36,17.785,3.667a2.8,2.8,0,0,1,3.9,0,2.65,2.65,0,0,1,0,3.808L8.695,20.168,3.5,21.438Z" transform="translate(-8637 -17712.879)" fill="none" stroke="#fff" stroke-linecap="round" stroke-linejoin="round" stroke-width="1.5"/><line x2="3.456" y2="3.278" transform="translate(-8631.378 -17696.393)" fill="none" stroke="#fff" stroke-linecap="round" stroke-linejoin="round" stroke-width="1.5"/><line x2="18" transform="translate(-8633.5 -17688.879)" fill="none" stroke="#fff" stroke-linecap="round" stroke-linejoin="round" stroke-width="1.5"/></g><rect width="28" height="28" fill="none"/></g></svg>