<svg xmlns="http://www.w3.org/2000/svg" width="32" height="32" viewBox="0 0 32 32"><g transform="translate(-164 -698)"><path d="M16,0A16,16,0,1,1,0,16,16,16,0,0,1,16,0Z" transform="translate(164 698)" fill="#999"/><path d="M7.757,3.243c2.463,2.463,3.449,5.471,2.2,6.717s-4.254.261-6.718-2.2S-.208,2.287,1.04,1.04,5.294.78,7.757,3.243Z" transform="translate(169.501 706.5)" fill="none" stroke="#fff" stroke-miterlimit="10" stroke-width="1.5"/><path d="M14.427,3.243c-2.463,2.463-3.449,5.471-2.2,6.717s4.254.261,6.718-2.2,3.449-5.471,2.2-6.718S16.89.78,14.427,3.243Z" transform="translate(168.316 706.5)" fill="none" stroke="#fff" stroke-miterlimit="10" stroke-width="1.5"/><line y2="8" transform="translate(180 716)" fill="none" stroke="#fff" stroke-linecap="round" stroke-miterlimit="10" stroke-width="1.5"/><path d="M3913.5,7773.5l4-4" transform="translate(-3732.5 -7057.504)" fill="none" stroke="#fff" stroke-linecap="round" stroke-width="1.2"/><path d="M3917.5,7773.5l-4-4" transform="translate(-3738.5 -7057.504)" fill="none" stroke="#fff" stroke-linecap="round" stroke-width="1.2"/><rect width="32" height="32" transform="translate(164 698)" fill="none"/></g></svg>