<svg xmlns="http://www.w3.org/2000/svg" width="106" height="87" viewBox="0 0 106 87"><g transform="translate(-128 -318)"><text transform="translate(128 392)" fill="#1ec41e" font-size="56" font-family="NanumGothicBold, NanumGothic"><tspan x="0" y="0">담깅</tspan></text><g transform="translate(167.61 317.5)"><path d="M10.66,4.34c3.448,3.448,4.829,7.659,3.084,9.4s-5.956.366-9.405-3.083S-.491,3,1.256,1.256,7.212.891,10.66,4.34" transform="translate(-1.109)" fill="#1ec41e"/><path d="M10.367,4.229c3.349,3.349,4.69,7.438,3,9.133s-5.784.355-9.134-2.994S-.462,2.929,1.234,1.234,7.018.88,10.367,4.229Z" transform="translate(-1)" fill="none"/><path d="M15.524,4.34c-3.448,3.448-4.829,7.659-3.084,9.4s5.956.366,9.405-3.083S26.674,3,24.928,1.256s-5.956-.365-9.4,3.084" transform="translate(0.705)" fill="#1ec41e"/><path d="M15.413,4.229c-3.349,3.349-4.69,7.438-2.995,9.133s5.784.355,9.134-2.994,4.69-7.439,2.994-9.134S18.762.88,15.413,4.229Z" transform="translate(1)" fill="none"/></g></g></svg>